<?xml version="1.0" encoding="utf-8"?>
<!-- Generator: Adobe Illustrator 22.0.1, SVG Export Plug-In . SVG Version: 6.00 Build 0)  -->
<svg version="1.1" id="Layer_1" xmlns="http://www.w3.org/2000/svg" xmlns:xlink="http://www.w3.org/1999/xlink" x="0px" y="0px"
	 viewBox="0 0 275 88" style="enable-background:new 0 0 275 88;" xml:space="preserve">
<style type="text/css">
	.st0{fill:#FFFFFF;}
	.st1{fill-rule:evenodd;clip-rule:evenodd;fill:#FFFFFF;}
</style>
<g>
	<g>
		<path class="st0" d="M84.9,14.8h12.6v55.4H84.9V14.8z"/>
		<path class="st0" d="M112.4,53.7c0.7,0.8,1.6,1.6,2.5,2.4c1,0.8,2,1.5,3.2,2.2c1.2,0.7,2.5,1.2,3.9,1.6c1.4,0.4,2.9,0.6,4.5,0.6
			c0.9,0,1.9-0.1,2.8-0.4c0.9-0.3,1.8-0.7,2.6-1.2c0.8-0.5,1.4-1.2,1.9-1.9c0.5-0.7,0.7-1.6,0.7-2.5c0-2-1-3.6-3-4.8
			c-2-1.1-5.2-2.3-9.5-3.4c-2.1-0.5-4.1-1.2-5.9-2.2c-1.8-0.9-3.4-2.1-4.7-3.4c-1.3-1.3-2.3-2.9-3-4.6c-0.7-1.7-1.1-3.6-1.1-5.7
			c0-2.3,0.4-4.5,1.2-6.6c0.8-2,2.1-3.9,3.8-5.4c1.7-1.6,3.8-2.8,6.3-3.7c2.5-0.9,5.5-1.4,8.9-1.4c2.8,0,5.3,0.3,7.5,0.9
			c2.2,0.6,4,1.3,5.5,2.1c1.5,0.8,2.8,1.6,3.7,2.5c1,0.9,1.7,1.5,2.2,2l-7.2,8c-0.6-0.5-1.3-1-2.1-1.6c-0.8-0.6-1.7-1.1-2.7-1.6
			c-1-0.5-2.1-0.9-3.3-1.2c-1.2-0.3-2.5-0.5-3.8-0.5c-0.9,0-1.8,0.1-2.6,0.4c-0.9,0.3-1.6,0.7-2.3,1.1c-0.7,0.5-1.2,1-1.7,1.7
			c-0.4,0.6-0.6,1.3-0.6,2c0,1.9,1,3.4,3,4.6c2,1.2,4.7,2.1,8.2,2.9c2,0.5,4.1,1.2,6,2c2,0.9,3.7,2,5.3,3.4c1.6,1.4,2.8,3.1,3.7,5.1
			c0.9,2,1.4,4.5,1.4,7.4c0,2.5-0.6,4.8-1.7,6.9c-1.1,2.1-2.6,3.9-4.5,5.5c-1.9,1.6-4.2,2.8-6.7,3.6c-2.6,0.9-5.4,1.3-8.4,1.3
			c-2.8,0-5.3-0.3-7.6-0.8c-2.3-0.5-4.3-1.2-6.2-2.1c-1.8-0.9-3.5-1.8-4.9-3c-1.5-1.1-2.7-2.2-3.8-3.4L112.4,53.7z"/>
		<path class="st0" d="M157.3,14.8h12.6v44.3h26.5v11.1h-39.1V14.8z"/>
		<path class="st0" d="M230,39.8h21.4v24c-2.9,2.5-6.2,4.4-10.1,5.8c-3.9,1.4-8.2,2-13.2,2c-4.5,0-8.6-0.7-12.2-2.1
			c-3.6-1.4-6.6-3.4-9.1-5.9c-2.5-2.5-4.4-5.6-5.7-9.1c-1.3-3.5-2-7.5-2-11.7c0-4.2,0.7-8,2.1-11.6c1.4-3.5,3.4-6.6,5.9-9.3
			c2.5-2.6,5.6-4.7,9.1-6.2c3.5-1.5,7.4-2.2,11.6-2.2c5,0,9.5,0.9,13.3,2.8c3.8,1.9,6.9,4.4,9.4,7.8L242,32
			c-1.8-2.1-3.7-3.8-5.9-5.2c-2.1-1.3-4.8-2-7.9-2c-2.5,0-4.8,0.5-6.8,1.4c-2,0.9-3.7,2.2-5.1,3.8c-1.4,1.6-2.4,3.5-3.2,5.7
			c-0.7,2.2-1.1,4.5-1.1,6.9c0,2.7,0.4,5.1,1.2,7.2c0.8,2.2,2,4,3.5,5.5c1.5,1.5,3.3,2.7,5.3,3.5c2,0.8,4.2,1.2,6.6,1.2
			c2.2,0,4.2-0.3,6.1-0.8c1.8-0.5,3.5-1.4,4.9-2.5v-7H230V39.8z"/>
	</g>
	<path class="st1" d="M36.3,31.1c-3.4,2.8-5.6,6.9-5.6,11.4c0,4.6,2.2,8.7,5.6,11.5c3.4-2.8,5.6-6.9,5.6-11.5
		C41.9,38,39.7,33.9,36.3,31.1z M36.3,12.8c-16,0-29,13.4-29,29.7s13,29.6,29,29.6c16,0,29-13.3,29-29.6S52.3,12.8,36.3,12.8z
		 M51.6,47.4c-0.3,0.9-0.7,1.7-1.1,2.6l3.7,4.7l-5.8,5.8l-4.8-3.8c-0.6,0.3-1.2,0.6-1.8,0.8L41,64.3h-9.4l-0.8-6.8
		c-0.6-0.2-1.2-0.5-1.8-0.8l-4.8,3.8l-5.8-5.8l3.7-4.7c-0.5-0.8-0.8-1.7-1.2-2.6l-6.3-0.8v-8.1l6.3-0.8c0.2-0.8,0.5-1.6,0.9-2.3
		l-4.1-5.3l5.7-5.7l5.1,4c0.8-0.4,1.4-0.8,2.2-1l0.8-6.8H41l0.8,6.8c0.8,0.2,1.4,0.6,2.2,1l5.1-4l5.7,5.7l-4.1,5.3
		c0.4,0.8,0.7,1.6,0.9,2.3l6.3,0.8v8.1L51.6,47.4z"/>
	<g>
		<path class="st0" d="M255.5,68.2h-0.8v-0.4h2v0.4h-0.8v2h-0.4V68.2z M257,67.9h0.5l0.8,1.9l0.8-1.9h0.5v2.4h-0.4v-1.8l-0.7,1.8
			h-0.3l-0.7-1.8v1.8H257V67.9z"/>
	</g>
	<g>
		<path class="st0" d="M62,68.2h-0.8v-0.4h2v0.4h-0.8v2H62V68.2z M63.5,67.9H64l0.8,1.9l0.8-1.9H66v2.4h-0.4v-1.8l-0.7,1.8h-0.3
			l-0.7-1.8v1.8h-0.4V67.9z"/>
	</g>
</g>
</svg>
