<?xml version="1.0" encoding="utf-8"?>
<!-- Generator: Adobe Illustrator 22.0.1, SVG Export Plug-In . SVG Version: 6.00 Build 0)  -->
<svg version="1.1" id="Layer_1" xmlns="http://www.w3.org/2000/svg" xmlns:xlink="http://www.w3.org/1999/xlink" x="0px" y="0px"
	 viewBox="0 0 537.3 122.7" style="enable-background:new 0 0 537.3 122.7;" xml:space="preserve">
<style type="text/css">
	.st0{fill:#FFFFFF;}
	.st1{fill-rule:evenodd;clip-rule:evenodd;fill:#FFFFFF;}
</style>
<g>
	<path class="st0" d="M32.9,38.7H9.7V23.3h63v15.4H49.6v60.6H32.9V38.7z"/>
	<path class="st0" d="M176.8,23.3h16.7v60.8h37.9v15.2h-54.6V23.3z"/>
	<path class="st0" d="M80.9,61.5v-0.2C80.9,39.7,98,22,121.4,22c23.5,0,40.3,17.5,40.3,39.1v0.2c0,21.6-17.1,39.3-40.5,39.3
		C97.8,100.7,80.9,83.2,80.9,61.5z M144.3,61.5v-0.2c0-13-9.6-23.9-23-23.9c-13.5,0-22.8,10.6-22.8,23.7v0.2c0,13,9.6,23.9,23,23.9
		C134.9,85.2,144.3,74.6,144.3,61.5z"/>
	<path class="st0" d="M327.2,61.5v-0.2c0-21.6,16.8-39.3,39.9-39.3c13.7,0,21.9,3.7,29.9,10.4l-10.5,12.7
		c-5.9-4.9-11.1-7.7-19.9-7.7c-12.2,0-21.8,10.8-21.8,23.7v0.2c0,13.9,9.6,24.1,23,24.1c6.1,0,11.5-1.5,15.7-4.6V70h-16.8V55.6h33
		v33c-7.8,6.6-18.6,12.1-32.5,12.1C343.5,100.7,327.2,84,327.2,61.5z"/>
	<path class="st0" d="M420.1,23.3h16.7v76h-16.7V23.3z"/>
	<path class="st0" d="M480.4,60.7l-25.4-37.4h19.6l16,24.7l16.1-24.7h19l-25.4,37.2l26.5,38.9h-19.6L490,73.3l-17.2,26.1h-19
		L480.4,60.7z"/>
	<path class="st1" d="M278.3,46.3c-4.5,3.7-7.4,9.1-7.4,15.1c0,6.1,2.9,11.5,7.4,15.2c4.5-3.7,7.4-9.1,7.4-15.2
		C285.6,55.4,282.8,50,278.3,46.3z M278.3,22.2c-21.1,0-38.2,17.6-38.2,39.2s17.1,39.1,38.2,39.1c21.1,0,38.2-17.6,38.2-39.1
		S299.3,22.2,278.3,22.2z M298.5,67.9c-0.4,1.2-0.9,2.3-1.5,3.4l4.9,6.2l-7.6,7.6l-6.3-5c-0.8,0.4-1.6,0.8-2.4,1.1l-1.1,8.9h-12.3
		l-1.1-8.9c-0.8-0.3-1.6-0.7-2.4-1.1l-6.3,5l-7.6-7.6l4.9-6.2c-0.6-1.1-1.1-2.2-1.5-3.4l-8.3-1V56.1l8.3-1c0.3-1,0.7-2.1,1.2-3.1
		l-5.4-6.9l7.5-7.5l6.7,5.3c1-0.5,1.9-1,2.9-1.3l1.1-8.9h12.3l1.1,8.9c1,0.3,1.9,0.8,2.9,1.3l6.7-5.3l7.5,7.5l-5.4,6.9
		c0.5,1,0.9,2.1,1.2,3.1l8.3,1v10.7L298.5,67.9z"/>
</g>
</svg>
